<svg width="36" height="36" viewBox="0 0 36 36" fill="none" xmlns="http://www.w3.org/2000/svg">
<path d="M17.3333 9.99996V28C17.3333 29.44 16.7466 30.76 15.8133 31.72L15.76 31.7733C15.64 31.8933 15.5066 32.0133 15.3866 32.1066C14.9866 32.4533 14.5333 32.72 14.0666 32.9066C13.9199 32.9733 13.7733 33.0266 13.6266 33.08C13.1066 33.2533 12.5466 33.3333 12 33.3333C11.64 33.3333 11.28 33.2933 10.9333 33.2266C10.76 33.1866 10.5866 33.1466 10.4133 33.0933C10.2 33.0266 9.99997 32.96 9.79997 32.8666C9.79997 32.8533 9.79995 32.8533 9.78662 32.8666C9.41329 32.68 9.0533 32.4666 8.71997 32.2133L8.70662 32.2C8.53329 32.0666 8.37331 31.9333 8.22664 31.7733C8.07998 31.6133 7.93329 31.4533 7.78662 31.28C7.53329 30.9466 7.31997 30.5866 7.1333 30.2133C7.14663 30.2 7.14663 30.2 7.1333 30.2C7.1333 30.2 7.13329 30.1866 7.11995 30.1733C7.03995 29.9866 6.97328 29.7866 6.90662 29.5866C6.85328 29.4133 6.81327 29.24 6.77327 29.0666C6.70661 28.72 6.66663 28.36 6.66663 28V9.99996C6.66663 7.99996 7.99996 6.66663 9.99996 6.66663H14C16 6.66663 17.3333 7.99996 17.3333 9.99996Z" fill="#DFD8FC"/>
<path d="M33.3333 26V30C33.3333 32 32 33.3333 30 33.3333H12C12.5467 33.3333 13.1067 33.2533 13.6267 33.08C13.7733 33.0266 13.92 32.9733 14.0667 32.9066C14.5333 32.72 14.9867 32.4533 15.3867 32.1066C15.5067 32.0133 15.64 31.8933 15.76 31.7733L15.8133 31.72L24.88 22.6666H30C32 22.6666 33.3333 24 33.3333 26Z" fill="#DFD8FC"/>
<path d="M28.4934 19.0533L24.88 22.6666L15.8134 31.72C16.7467 30.76 17.3334 29.44 17.3334 28V15.12L20.9467 11.5067C22.36 10.0933 24.2534 10.0933 25.6667 11.5067L28.4934 14.3333C29.9067 15.7466 29.9067 17.64 28.4934 19.0533Z" fill="#DFD8FC"/>
<path d="M14.3334 6.99996V25C14.3334 26.44 13.7467 27.76 12.8134 28.72L12.7601 28.7733C12.6401 28.8933 12.5068 29.0133 12.3868 29.1066C11.9868 29.4533 11.5334 29.72 11.0667 29.9066C10.9201 29.9733 10.7734 30.0266 10.6267 30.08C10.1067 30.2533 9.54675 30.3333 9.00008 30.3333C8.64008 30.3333 8.2801 30.2933 7.93343 30.2266C7.7601 30.1866 7.58674 30.1466 7.41341 30.0933C7.20008 30.0266 7.00009 29.96 6.80009 29.8666C6.80009 29.8533 6.80008 29.8533 6.78674 29.8666C6.41341 29.68 6.05343 29.4666 5.72009 29.2133L5.70675 29.2C5.53341 29.0666 5.37343 28.9333 5.22677 28.7733C5.0801 28.6133 4.93341 28.4533 4.78674 28.28C4.53341 27.9466 4.32009 27.5866 4.13342 27.2133C4.14676 27.2 4.14676 27.2 4.13342 27.2C4.13342 27.2 4.13341 27.1866 4.12008 27.1733C4.04008 26.9866 3.9734 26.7866 3.90674 26.5866C3.8534 26.4133 3.8134 26.24 3.7734 26.0666C3.70673 25.72 3.66675 25.36 3.66675 25V6.99996C3.66675 4.99996 5.00008 3.66663 7.00008 3.66663H11.0001C13.0001 3.66663 14.3334 4.99996 14.3334 6.99996Z" stroke="#5E3BEE" stroke-width="1.5" stroke-linecap="round" stroke-linejoin="round"/>
<path d="M30.3333 23V27C30.3333 29 29 30.3333 27 30.3333H9C9.54667 30.3333 10.1067 30.2533 10.6267 30.08C10.7733 30.0266 10.92 29.9733 11.0667 29.9066C11.5333 29.72 11.9867 29.4533 12.3867 29.1066C12.5067 29.0133 12.64 28.8933 12.76 28.7733L12.8133 28.72L21.88 19.6666H27C29 19.6666 30.3333 21 30.3333 23Z" stroke="#5E3BEE" stroke-width="1.5" stroke-linecap="round" stroke-linejoin="round"/>
<path d="M7.41341 30.0933C6.61341 29.8533 5.85343 29.4133 5.22677 28.7733C4.58677 28.1467 4.14674 27.3867 3.90674 26.5867C4.42674 28.2533 5.74674 29.5733 7.41341 30.0933Z" stroke="#5E3BEE" stroke-width="1.5" stroke-linecap="round" stroke-linejoin="round"/>
<path d="M25.4934 16.0533L21.88 19.6666L12.8134 28.72C13.7467 27.76 14.3334 26.44 14.3334 25V12.12L17.9467 8.50666C19.36 7.09332 21.2534 7.09332 22.6667 8.50666L25.4934 11.3333C26.9067 12.7466 26.9067 14.64 25.4934 16.0533Z" stroke="#5E3BEE" stroke-width="1.5" stroke-linecap="round" stroke-linejoin="round"/>
<path d="M8.99996 26.3333C9.73634 26.3333 10.3333 25.7363 10.3333 25C10.3333 24.2636 9.73634 23.6666 8.99996 23.6666C8.26358 23.6666 7.66663 24.2636 7.66663 25C7.66663 25.7363 8.26358 26.3333 8.99996 26.3333Z" stroke="#5E3BEE" stroke-width="1.5" stroke-linecap="round" stroke-linejoin="round"/>
</svg>
