<svg width="36" height="36" viewBox="0 0 36 36" fill="none" xmlns="http://www.w3.org/2000/svg">
<path d="M12.5866 6.66663H27.4C32.1466 6.66663 33.3333 7.85329 33.3333 12.5866V21.0266C33.3333 25.7733 32.1466 26.9466 27.4133 26.9466H12.5866C7.85329 26.96 6.66663 25.7733 6.66663 21.04V12.5866C6.66663 7.85329 7.85329 6.66663 12.5866 6.66663Z" fill="#D9F5FE"/>
<path d="M9.58675 3.66663H24.4001C29.1467 3.66663 30.3334 4.85329 30.3334 9.58663V18.0266C30.3334 22.7733 29.1467 23.9466 24.4134 23.9466H9.58675C4.85341 23.96 3.66675 22.7733 3.66675 18.04V9.58663C3.66675 4.85329 4.85341 3.66663 9.58675 3.66663Z" stroke="#74D1EF" stroke-width="1.5" stroke-linecap="round" stroke-linejoin="round"/>
<path d="M17 23.96V30.3333" stroke="#74D1EF" stroke-width="1.5" stroke-linecap="round" stroke-linejoin="round"/>
<path d="M3.66675 18.3334H30.3334" stroke="#74D1EF" stroke-width="1.5" stroke-linecap="round" stroke-linejoin="round"/>
<path d="M11 30.3334H23" stroke="#74D1EF" stroke-width="1.5" stroke-linecap="round" stroke-linejoin="round"/>
</svg>
